# xmcd CD database file
#
# Track frame offsets:
#	150
#	15832
#	29775
#	48017
#	67817
#	87857
#	101662
#	117645
#	140117
#	151795
#
# Disc length: 2269 seconds
#
# Revision: 0
# Processed by: cddbd v1.5.1PL2 Copyright (c) Steve Scherf et al.
# Submitted via: CDex 1.51
#
DISCID=7a08db0a
DTITLE=Sadao Watanabe - Goin' Home
DYEAR=1987
DGENRE=Jazz
TTITLE0=Goin' Home
TTITLE1=My Favorite Things
TTITLE2=From Russia With Love
TTITLE3=And I Love Her
TTITLE4=There's No Business Like Show Business
TTITLE5=The Days Of Wine And Roses
TTITLE6=Emily
TTITLE7=The Shadow Of Your Smile
TTITLE8=I Feel Pretty
TTITLE9=I Could Have Danced All Night
EXTD=YEAR: 1987
EXTT0=
EXTT1=
EXTT2=
EXTT3=
EXTT4=
EXTT5=
EXTT6=
EXTT7=
EXTT8=
EXTT9=
PLAYORDER=
